<?xml version="1.0" encoding="UTF-8" standalone="no"?>
<svg
   class="ionicon"
   viewBox="0 0 512 512"
   version="1.1"
   id="svg16"
   sodipodi:docname="pause.svg"
   inkscape:version="1.2.2 (732a01da63, 2022-12-09)"
   xmlns:inkscape="http://www.inkscape.org/namespaces/inkscape"
   xmlns:sodipodi="http://sodipodi.sourceforge.net/DTD/sodipodi-0.dtd"
   xmlns="http://www.w3.org/2000/svg"
   xmlns:svg="http://www.w3.org/2000/svg">
  <defs
     id="defs20" />
  <sodipodi:namedview
     id="namedview18"
     pagecolor="#ffffff"
     bordercolor="#000000"
     borderopacity="0.25"
     inkscape:showpageshadow="2"
     inkscape:pageopacity="0.0"
     inkscape:pagecheckerboard="0"
     inkscape:deskcolor="#d1d1d1"
     showgrid="false"
     inkscape:zoom="1.5898438"
     inkscape:cx="155.36118"
     inkscape:cy="256.3145"
     inkscape:window-width="1920"
     inkscape:window-height="1001"
     inkscape:window-x="-9"
     inkscape:window-y="-9"
     inkscape:window-maximized="1"
     inkscape:current-layer="svg16" />
  <title
     id="title12">Pause</title>
  <path
     d="M 187.42857,432 H 118.85714 A 22.857143,16 0 0 1 96,416 V 96 a 22.857143,16 0 0 1 22.85714,-16 h 68.57143 a 22.857143,16 0 0 1 22.85714,16 v 320 a 22.857143,16 0 0 1 -22.85714,16 z m 205.71429,0 H 324.57143 A 22.857143,16 0 0 1 301.71429,416 V 96 a 22.857143,16 0 0 1 22.85714,-16 h 68.57143 A 22.857143,16 0 0 1 416,96 v 320 a 22.857143,16 0 0 1 -22.85714,16 z"
     id="path14"
     style="stroke-width:1.19523" />
</svg>
